#!OML:ASF I:\Actors\actors\Patient Classification 2\Patient 1\Session 1\actor1.ASF
:FULLY-SPECIFIED
:DEGREES
751
root -0.567955 18.9305 5.46634 23.9571 6.77446 -3.63434
lowerback 26.1639 0.403418 3.84301
upperback 4.53608 2.22824 5.87288
thorax -9.59239 1.02014 3.62021
lowerneck -0.569019 -2.22999 -1.07051
upperneck -5.32682 -3.18663 -3.86269
head -1.60675 -1.51017 -0.982915
rclavicle 3.97569e-015 2.14687e-014
rhumerus 24.2496 6.22195 -51.408
rradius 45.4594
rwrist 21.1665
rhand -12.1854 -38.8519
rfingers 7.12502
rthumb 13.8784 -68.3688
lclavicle 3.97569e-015 2.14687e-014
lhumerus -20.5178 -35.8362 79.1273
lradius 103.518
lwrist 2.76667
lhand -12.0746 -18.6026
lfingers 7.12502
lthumb 13.9852 10.907
rfemur -18.2973 -5.80451 20.1634
rtibia 6.67916e-014
rfoot -15.3834 -14.448
rtoes 0.109249
lfemur -42.9911 1.32994 -10.4172
ltibia 36.8466
lfoot -10.3119 5.60462
ltoes -56.8249
752
root -0.550938 18.9261 5.46306 23.9106 6.97779 -3.69592
lowerback 26.1156 0.465431 4.02326
upperback 4.55601 2.35844 5.92967
thorax -9.54549 1.07666 3.53577
lowerneck -0.453134 -2.42611 -1.29255
upperneck -5.42102 -3.45042 -3.6679
head -1.65222 -1.63858 -0.879337
rclavicle 1.51076e-014 7.95139e-016
rhumerus 23.7196 5.45652 -51.4995
rradius 45.229
rwrist 22.5391
rhand -11.5757 -38.4354
rfingers 7.12502
rthumb 14.4658 -67.9112
lclavicle 1.51076e-014 7.95139e-016
lhumerus -19.7132 -36.3023 78.797
lradius 103.555
lwrist 2.97169
lhand -12.0257 -18.3624
lfingers 7.12502
lthumb 14.0322 11.144
rfemur -18.2316 -5.97454 20.2362
rtibia -3.02153e-014
rfoot -15.3869 -14.4173
rtoes -0.159023
lfemur -43.1684 1.31126 -10.3987
ltibia 37.1241
lfoot -10.1918 5.44409
ltoes -56.7868
753
root -0.5352 18.9225 5.45883 23.8692 7.18092 -3.73994
lowerback 26.0651 0.530386 4.22149
upperback 4.56952 2.49372 5.95544
thorax -9.50184 1.13452 3.40452
lowerneck -0.281482 -2.6422 -1.4989
upperneck -5.50004 -3.74243 -3.48052
head -1.70246 -1.78101 -0.779518
rclavicle 4.77083e-015 -3.73715e-014
rhumerus 23.0826 4.86228 -51.5117
rradius 45.0154
rwrist 23.026
rhand -10.4245 -38.3178
rfingers 7.12502
rthumb 15.5748 -67.7107
lclavicle 4.77083e-015 -3.73715e-014
lhumerus -18.8351 -36.826 78.3163
lradius 103.615
lwrist 3.16674
lhand -11.8813 -17.9924
lfingers 7.12502
lthumb 14.1713 11.5042
rfemur -18.1736 -6.14964 20.298
rtibia 2.8625e-014
rfoot -15.3536 -14.4172
rtoes -0.690224
lfemur -43.3561 1.26761 -10.382
ltibia 37.3855
lfoot -10.0704 5.27381
ltoes -56.6784
754
root -0.516174 18.9185 5.45531 23.7974 7.52716 -3.69568
lowerback 26.0264 0.505462 4.49272
upperback 4.598 2.53151 5.9626
thorax -9.43919 1.1449 3.24318
lowerneck -0.162487 -2.87921 -1.76197
upperneck -5.57487 -4.05953 -3.23983
head -1.73872 -1.93671 -0.653645
rclavicle -1.51076e-014 2.38542e-015
rhumerus 22.4559 4.62994 -51.3661
rradius 44.8225
rwrist 21.9946
rhand -10.2496 -38.5461
rfingers 7.12502
rthumb 15.7433 -67.9257
lclavicle -1.51076e-014 2.38542e-015
lhumerus -17.7693 -37.3198 77.7139
lradius 103.6
lwrist 3.43901
lhand -11.6857 -17.6722
lfingers 7.12502
lthumb 14.3598 11.8112
rfemur -18.0512 -6.49902 20.3121
rtibia -1.82882e-014
rfoot -15.3857 -14.3476
rtoes -0.723353
lfemur -43.5228 1.07272 -10.4161
ltibia 37.6397
lfoot -9.9704 5.11629
ltoes -56.5531
755
root -0.493477 18.9127 5.45033 23.779 7.98648 -3.5612
lowerback 25.9732 0.4079 4.79615
upperback 4.59568 2.48593 5.96382
thorax -9.39965 1.11559 3.08539
lowerneck -0.0181156 -3.10825 -2.11931
upperneck -5.70743 -4.36515 -2.8887
head -1.79133 -2.08582 -0.477035
rclavicle 2.70347e-014 3.33958e-014
rhumerus 21.8679 4.3473 -51.3046
rradius 44.641
rwrist 21.3766
rhand -10.6175 -38.4545
rfingers 7.12502
rthumb 15.3889 -67.8618
lclavicle 2.70347e-014 3.33958e-014
lhumerus -16.6898 -37.7816 77.1097
lradius 103.567
lwrist 3.81815
lhand -11.4546 -17.3528
lfingers 7.12502
lthumb 14.5826 12.1145
rfemur -17.9638 -6.99573 20.2729
rtibia 2.54444e-014
rfoot -15.4721 -14.1983
rtoes -0.084639
lfemur -43.7611 0.709285 -10.4988
ltibia 37.8929
lfoot -9.87731 5.04428
ltoes -56.5497
756
root -0.473673 18.9079 5.44515 23.7951 8.28252 -3.57039
lowerback 25.897 0.393925 5.08545
upperback 4.58191 2.54151 5.96823
thorax -9.36445 1.13354 2.9059
lowerneck 0.0961077 -3.32062 -2.51275
upperneck -5.74198 -4.63989 -2.44995
head -1.80197 -2.22283 -0.269123
rclavicle 1.19271e-014 1.35174e-014
rhumerus 21.2983 3.74636 -51.4161
rradius 44.4853
rwrist 22.1337
rhand -9.66835 -38.349
rfingers 7.12502
rthumb 16.303 -67.6836
lclavicle 1.19271e-014 1.35174e-014
lhumerus -15.7282 -38.2699 76.484
lradius 103.586
lwrist 4.13301
lhand -11.1489 -17.0746
lfingers 7.12502
lthumb 14.8771 12.3713
rfemur -17.9567 -7.27648 20.3282
rtibia -7.95139e-015
rfoot -15.5308 -14.1129
rtoes 0.202386
lfemur -44.0148 0.541645 -10.489
ltibia 38.1445
lfoot -9.77948 4.97879
ltoes -56.6161
757
root -0.458234 18.9048 5.43978 23.7944 8.42182 -3.7109
lowerback 25.8114 0.476582 5.31192
upperback 4.59839 2.70239 6.00093
thorax -9.29555 1.20333 2.75928
lowerneck 0.153411 -3.52752 -2.80554
upperneck -5.7163 -4.90722 -2.11754
head -1.78707 -2.35776 -0.11305
rclavicle 8.74653e-015 5.24792e-014
rhumerus 20.7624 3.17367 -51.4734
rradius 44.3602
rwrist 22.6131
rhand -9.42675 -38.2214
rfingers 7.12502
rthumb 16.5356 -67.5368
lclavicle 8.74653e-015 5.24792e-014
lhumerus -14.7208 -38.7479 75.8305
lradius 103.603
lwrist 4.40022
lhand -10.9338 -16.7965
lfingers 7.12502
lthumb 15.0843 12.6339
rfemur -17.971 -7.35239 20.4632
rtibia 3.02153e-014
rfoot -15.572 -14.0932
rtoes 0.129527
lfemur -44.2305 0.568569 -10.3944
ltibia 38.3862
lfoot -9.68955 4.85875
ltoes -56.6632
